<svg width="131" height="25" viewBox="0 0 131 25" fill="none" xmlns="http://www.w3.org/2000/svg">
<path d="M44.0387 19H42.6387V6H45.6587C46.6987 6 47.4854 6.24667 48.0187 6.74C48.5654 7.23333 48.8387 7.92 48.8387 8.8V12.2C48.8387 13.0933 48.572 13.7867 48.0387 14.28C47.5054 14.76 46.712 15 45.6587 15H44.0387V19ZM47.4387 12.2V8.8C47.4387 8.29333 47.2854 7.9 46.9787 7.62C46.672 7.34 46.232 7.2 45.6587 7.2H44.0387V13.8H45.6587C46.8454 13.8 47.4387 13.2667 47.4387 12.2ZM57.2379 16.5V6H58.6379V16.5C58.6379 17.3933 58.3513 18.0867 57.7779 18.58C57.2179 19.06 56.3713 19.3 55.2379 19.3C54.1179 19.3 53.2713 19.06 52.6979 18.58C52.1246 18.0867 51.8379 17.3933 51.8379 16.5V6H53.2379V16.5C53.2379 17.5667 53.9046 18.1 55.2379 18.1C56.5713 18.1 57.2379 17.5667 57.2379 16.5ZM68.7886 16.5C68.7886 18.3667 67.6619 19.3 65.4086 19.3C63.1552 19.3 62.0286 18.3667 62.0286 16.5V14.8H63.4286V16.58C63.4286 17.06 63.5952 17.4333 63.9286 17.7C64.2619 17.9667 64.7552 18.1 65.4086 18.1C66.0619 18.1 66.5552 17.9667 66.8886 17.7C67.2219 17.4333 67.3886 17.0733 67.3886 16.62C67.3886 16.1533 67.3352 15.7867 67.2286 15.52C67.1352 15.24 66.9352 14.9467 66.6286 14.64L63.1086 11.2C62.6952 10.7867 62.4086 10.3867 62.2486 10C62.1019 9.6 62.0286 9.1 62.0286 8.5C62.0286 7.60667 62.3019 6.92 62.8486 6.44C63.4086 5.94667 64.2486 5.7 65.3686 5.7C67.5152 5.7 68.5886 6.63333 68.5886 8.5V10.2H67.1886V8.42C67.1886 7.94 67.0286 7.56667 66.7086 7.3C66.4019 7.03333 65.9352 6.9 65.3086 6.9C64.6819 6.9 64.2086 7.03333 63.8886 7.3C63.5819 7.56667 63.4286 7.93333 63.4286 8.4C63.4286 8.86667 63.4752 9.23333 63.5686 9.5C63.6619 9.76667 63.8686 10.0467 64.1886 10.34L67.7686 13.78C68.1552 14.2067 68.4219 14.62 68.5686 15.02C68.7152 15.4067 68.7886 15.9 68.7886 16.5ZM77.5895 6V7.2H74.9895V19H73.5895V7.2H70.9895V6H77.5895ZM81.1217 6H83.2217L86.1617 19H84.7617L84.0817 16H80.2617L79.5817 19H78.1817L81.1217 6ZM82.1617 7.56L80.5217 14.8H83.8017L82.1617 7.56ZM90.372 19H88.972V6H90.372V11.52L93.852 6H95.412L91.872 11.6L95.652 19H94.112L91.032 12.94L90.372 14V19ZM99.7936 6H101.894L104.834 19H103.434L102.754 16H98.9336L98.2536 19H96.8536L99.7936 6ZM100.834 7.56L99.1936 14.8H102.474L100.834 7.56ZM107.624 19V6H109.024V17.8H112.684V19H107.624ZM116.825 6H118.925L121.865 19H120.465L119.785 16H115.965L115.285 19H113.885L116.825 6ZM117.865 7.56L116.225 14.8H119.505L117.865 7.56ZM127.054 19H125.654V14.34L122.354 6H123.834L126.354 12.7L128.874 6H130.354L127.054 14.36V19Z" fill="#3D3C3C"/>
<path d="M14.629 6C14.629 4.93913 15.0709 3.92172 15.8573 3.17157C16.6437 2.42143 17.7104 2 18.8226 2H27.2097C27.4877 2 27.7544 2.10536 27.951 2.29289C28.1476 2.48043 28.2581 2.73478 28.2581 3V19C28.2581 19.2652 28.1476 19.5196 27.951 19.7071C27.7544 19.8946 27.4877 20 27.2097 20H18.8226C17.7104 20 16.6437 20.4214 15.8573 21.1716C15.0709 21.9217 14.629 22.9391 14.629 24" stroke="#3D3C3C" stroke-width="1.5" stroke-linecap="round" stroke-linejoin="round"/>
<path d="M1 19C1 19.2652 1.11045 19.5196 1.30707 19.7071C1.50368 19.8946 1.77034 20 2.04839 20H10.4355C11.5477 20 12.6143 20.4214 13.4008 21.1716C14.1872 21.9217 14.629 22.9391 14.629 24V6C14.629 4.93913 14.1872 3.92172 13.4008 3.17157C12.6143 2.42143 11.5477 2 10.4355 2H2.04839C1.77034 2 1.50368 2.10536 1.30707 2.29289C1.11045 2.48043 1 2.73478 1 3V19Z" stroke="#3D3C3C" stroke-width="1.5" stroke-linecap="round" stroke-linejoin="round"/>
</svg>
